<svg width="24" height="24" viewBox="0 0 24 24" fill="none" xmlns="http://www.w3.org/2000/svg">
<path fill-rule="evenodd" clip-rule="evenodd" d="M2 2.75C2 1.7835 2.7835 1 3.75 1H20.25C21.2165 1 22 1.7835 22 2.75V19.25C22 20.2165 21.2165 21 20.25 21H15.9749C15.7097 21 15.4553 21.1054 15.2678 21.2929L13.2374 23.3232C12.554 24.0066 11.446 24.0066 10.7626 23.3232L8.73223 21.2929C8.5447 21.1054 8.29034 21 8.02513 21H3.75C2.7835 21 2 20.2165 2 19.25V2.75ZM20.25 2.5H3.75C3.61193 2.5 3.5 2.61193 3.5 2.75V19.25C3.5 19.3881 3.61193 19.5 3.75 19.5H8.63766C8.90161 19.5 9.15486 19.6044 9.34218 19.7903L10.5518 20.9911L11.8232 22.2626C11.9209 22.3602 12.0791 22.3602 12.1768 22.2626L13.4482 20.9911L14.6578 19.7903C14.8451 19.6044 15.0984 19.5 15.3623 19.5H20.25C20.3881 19.5 20.5 19.3881 20.5 19.25V2.75C20.5 2.61193 20.3881 2.5 20.25 2.5Z" fill="#388b5f"/>
<path fill-rule="evenodd" clip-rule="evenodd" d="M20.25 2.5H3.75C3.61193 2.5 3.5 2.61193 3.5 2.75V19.25C3.5 19.3881 3.61193 19.5 3.75 19.5H8.63766C8.90161 19.5 9.15486 19.6044 9.34218 19.7903L10.5518 20.9911L11.8232 22.2626C11.9209 22.3602 12.0791 22.3602 12.1768 22.2626L13.4482 20.9911L14.6578 19.7903C14.8451 19.6044 15.0984 19.5 15.3623 19.5H20.25C20.3881 19.5 20.5 19.3881 20.5 19.25V2.75C20.5 2.61193 20.3881 2.5 20.25 2.5Z" fill="#9cf2bd"/>
<path d="M12.2699 6.6678C12.2192 6.56505 12.1146 6.5 12 6.5C11.8854 6.5 11.7808 6.56505 11.7301 6.6678L10.5025 9.15501L7.75775 9.55386C7.64436 9.57033 7.55015 9.64976 7.51474 9.75873C7.47933 9.86771 7.50886 9.98733 7.59092 10.0673L9.57707 12.0033L9.1082 14.737C9.08883 14.85 9.13526 14.9641 9.22796 15.0315C9.32066 15.0988 9.44356 15.1077 9.54498 15.0544L12 13.7637L14.455 15.0544C14.5564 15.1077 14.6793 15.0988 14.772 15.0315C14.8647 14.9641 14.9112 14.85 14.8918 14.737L14.4229 12.0033L16.4091 10.0673C16.4911 9.98733 16.5207 9.86771 16.4853 9.75873C16.4499 9.64976 16.3556 9.57033 16.2423 9.55386L13.4975 9.15501L12.2699 6.6678Z" fill="#388b5f"/>
</svg>