<svg width="96" height="96" viewBox="0 0 96 96" fill="none" xmlns="http://www.w3.org/2000/svg">
<mask id="mask0" mask-type="alpha" maskUnits="userSpaceOnUse" x="16" y="15" width="64" height="64">
<path d="M80 15H16V79H80V15Z" fill="white"/>
</mask>
<g mask="url(#mask0)">
<path d="M26.2426 20.9926L69.7574 64.5074C72.1005 66.8505 72.1005 70.6495 69.7574 72.9926C68.6321 74.1179 67.106 74.75 65.5147 74.75H22C18.6863 74.75 16 72.0637 16 68.75L16 25.2353C16 21.9216 18.6863 19.2353 22 19.2353C23.5913 19.2353 25.1174 19.8674 26.2426 20.9926Z" fill="#A0D674"/>
<g style="mix-blend-mode:multiply">
<path d="M26.2426 73.0074L69.7574 29.4926C72.1005 27.1495 72.1005 23.3505 69.7574 21.0074C68.6321 19.8821 67.106 19.25 65.5147 19.25L22 19.25C18.6863 19.25 16 21.9363 16 25.25L16 68.7647C16 72.0784 18.6863 74.7647 22 74.7647C23.5913 74.7647 25.1174 74.1326 26.2426 73.0074Z" fill="#3CB5B5"/>
</g>
<path d="M80 36.2427V57.7574C80 59.4142 78.6568 60.7574 77 60.7574C76.2043 60.7574 75.4413 60.4413 74.8787 59.8787L64.1213 49.1214C62.9497 47.9498 62.9497 46.0503 64.1213 44.8787L74.8787 34.1214C76.0502 32.9498 77.9497 32.9498 79.1213 34.1214C79.6839 34.684 80 35.447 80 36.2427Z" fill="#F97060"/>
</g>
</svg>
