<svg width="20" height="20" viewBox="0 0 20 20" fill="none" xmlns="http://www.w3.org/2000/svg">
<path d="M14.4002 7.73362C14.6443 7.48954 14.6443 7.09381 14.4002 6.84973C14.1561 6.60566 13.7604 6.60566 13.5163 6.84973L8.54158 11.8245L6.48353 9.7664C6.23945 9.52232 5.84372 9.52232 5.59964 9.7664C5.35557 10.0105 5.35557 10.4062 5.59964 10.6503L8.09964 13.1503C8.34372 13.3944 8.73945 13.3944 8.98353 13.1503L14.4002 7.73362Z" fill="#4C516D"/>
<path fill-rule="evenodd" clip-rule="evenodd" d="M9.99992 0.833344C4.93731 0.833344 0.833252 4.9374 0.833252 10C0.833252 15.0626 4.93731 19.1667 9.99992 19.1667C15.0625 19.1667 19.1666 15.0626 19.1666 10C19.1666 4.9374 15.0625 0.833344 9.99992 0.833344ZM2.08325 10C2.08325 5.62776 5.62766 2.08334 9.99992 2.08334C14.3722 2.08334 17.9166 5.62776 17.9166 10C17.9166 14.3723 14.3722 17.9167 9.99992 17.9167C5.62766 17.9167 2.08325 14.3723 2.08325 10Z" fill="#4C516D"/>
</svg>
